<svg id="Laag_1" data-name="Laag 1" xmlns="http://www.w3.org/2000/svg" viewBox="0 0 11.91 11"><path d="M316.07,422.5c1.8,0,2.8,2.3,2.8,2.3s1-2.3,2.8-2.3a2.09,2.09,0,0,1,.6.1,2.23,2.23,0,0,1,1.2,1,3.4,3.4,0,0,1-.1,3.3,17.59,17.59,0,0,1-4.5,4.4,17.76,17.76,0,0,1-4.5-4.4,3.36,3.36,0,0,1-.1-3.2,2.2,2.2,0,0,1,1.2-1,1.77,1.77,0,0,1,.6-.2m5.6-1a3.6,3.6,0,0,0-2.8,1.6,3.61,3.61,0,0,0-2.8-1.6,3.07,3.07,0,0,0-1,.2,3.21,3.21,0,0,0-1.7,1.5,4.39,4.39,0,0,0,.2,4.2c1.5,2.6,5.3,5.1,5.3,5.1s3.8-2.5,5.3-5a4.42,4.42,0,0,0,.2-4.3,3.21,3.21,0,0,0-1.8-1.5,3.12,3.12,0,0,0-1-.2Z" transform="translate(-312.93 -421.5)"/></svg>